<?xml version="1.0" standalone="no"?>
<!DOCTYPE svg PUBLIC "-//W3C//DTD SVG 20010904//EN"
 "http://www.w3.org/TR/2001/REC-SVG-20010904/DTD/svg10.dtd">
<svg version="1.0" xmlns="http://www.w3.org/2000/svg"
 width="32.000000pt" height="32.000000pt" viewBox="0 0 32.000000 32.000000"
 preserveAspectRatio="xMidYMid meet">

<g transform="translate(0.000000,32.000000) scale(0.100000,-0.100000)"
fill="#000000" stroke="none">
<path d="M110 283 c0 -9 -3 -13 -7 -10 -3 4 -12 2 -19 -4 -11 -9 -11 -14 2
-26 9 -9 13 -24 11 -34 -3 -11 -1 -19 4 -19 5 0 9 5 9 10 0 5 3 9 8 7 4 -1 7
3 7 8 0 6 -4 9 -8 7 -5 -1 -7 5 -5 15 4 22 36 29 52 13 8 -9 8 -14 -1 -17 -23
-8 -15 -32 9 -25 16 4 19 2 13 -8 -5 -9 -4 -11 3 -6 13 8 16 65 4 82 -4 6 -24
14 -44 17 -31 5 -38 3 -38 -10z"/>
<path d="M135 180 c3 -5 2 -10 -3 -10 -6 0 -10 -10 -10 -22 -2 -59 -32 -134
-32 -79 0 34 -18 24 -22 -13 -2 -19 -2 -39 0 -45 2 -7 40 -11 108 -11 l104 0
0 38 c0 40 -14 64 -35 56 -7 -3 -22 11 -34 31 -11 20 -25 34 -29 31 -5 -3 -15
4 -22 15 -15 19 -36 28 -25 9z"/>
<path d="M90 155 c6 -8 8 -20 4 -26 -4 -8 -3 -9 4 -5 18 11 14 46 -4 46 -13 0
-14 -3 -4 -15z"/>
</g>
</svg>
